<svg width="62" height="21" viewBox="0 0 62 21" fill="none" xmlns="http://www.w3.org/2000/svg">
<path d="M0.365234 7.14795C0.365234 6.09163 0.658854 5.30924 1.24609 4.80078C1.73665 4.37826 2.33464 4.16699 3.04004 4.16699C3.82422 4.16699 4.46517 4.4248 4.96289 4.94043C5.46061 5.45247 5.70947 6.16146 5.70947 7.06738C5.70947 7.80143 5.59847 8.37972 5.37646 8.80225C5.15804 9.22119 4.83757 9.54704 4.41504 9.77979C3.99609 10.0125 3.53776 10.1289 3.04004 10.1289C2.24154 10.1289 1.59521 9.87288 1.10107 9.36084C0.610514 8.8488 0.365234 8.11117 0.365234 7.14795ZM1.35889 7.14795C1.35889 7.87842 1.51823 8.42627 1.83691 8.7915C2.1556 9.15316 2.55664 9.33398 3.04004 9.33398C3.51986 9.33398 3.91911 9.15137 4.23779 8.78613C4.55648 8.4209 4.71582 7.8641 4.71582 7.11572C4.71582 6.41032 4.55469 5.87679 4.23242 5.51514C3.91374 5.1499 3.51628 4.96729 3.04004 4.96729C2.55664 4.96729 2.1556 5.14811 1.83691 5.50977C1.51823 5.87142 1.35889 6.41748 1.35889 7.14795ZM6.85352 4.2959H10.1353V5.09619H7.82031V10H6.85352V4.2959ZM12.3105 6.68066H14.3247C14.2638 6.1722 14.0955 5.76042 13.8198 5.44531C13.5477 5.12663 13.1968 4.96729 12.7671 4.96729C12.0187 4.96729 11.5658 5.35579 11.4082 6.13281L10.4683 5.98242C10.5542 5.44889 10.7941 5.01383 11.188 4.67725C11.5819 4.33708 12.0975 4.16699 12.7349 4.16699C13.5334 4.16699 14.1636 4.43197 14.6255 4.96191C15.0874 5.49186 15.3184 6.22054 15.3184 7.14795C15.3398 8.06104 15.1286 8.79867 14.6846 9.36084C14.2406 9.91943 13.6139 10.1755 12.8047 10.1289C12.1243 10.1289 11.5729 9.93734 11.1504 9.5542C10.7314 9.17106 10.4718 8.66618 10.3716 8.03955L11.3169 7.91602C11.4637 8.86133 11.9453 9.33398 12.7617 9.33398C13.2236 9.33398 13.5835 9.18001 13.8413 8.87207C14.1027 8.56055 14.2638 8.09505 14.3247 7.47559H12.3105V6.68066Z" fill="black"/>
<path d="M9.95052 15.0338C9.84636 15.1693 9.72136 15.2995 9.57552 15.4245C9.4349 15.5495 9.28646 15.638 9.13021 15.6901C9.01563 15.7266 8.87761 15.7318 8.71615 15.7057C8.5599 15.6797 8.44271 15.6042 8.36459 15.4792C8.33854 15.5 8.3099 15.526 8.27865 15.5573C8.25261 15.5833 8.22396 15.6068 8.19271 15.6276C8.14584 15.6693 8.09375 15.7109 8.03646 15.7526C7.97917 15.7943 7.92188 15.8307 7.86459 15.862C7.72396 15.9505 7.57032 16.0312 7.40365 16.1042C7.24219 16.1719 7.07813 16.2266 6.91146 16.2682C6.77084 16.2995 6.62761 16.3255 6.48177 16.3463C6.33594 16.362 6.19271 16.3698 6.05209 16.3698C5.97396 16.3698 5.88282 16.3672 5.77865 16.362C5.67448 16.3516 5.59115 16.3307 5.52865 16.2995C5.46615 16.263 5.42448 16.2109 5.40365 16.1432C5.38282 16.0703 5.35938 16.0052 5.33334 15.9479C5.28646 15.8489 5.28907 15.7422 5.34115 15.6276C5.39323 15.5078 5.49219 15.4635 5.63802 15.4948C5.66927 15.4948 5.70052 15.5052 5.73177 15.526C5.76823 15.5417 5.80209 15.5495 5.83334 15.5495C5.89584 15.5547 5.95834 15.5547 6.02084 15.5495C6.08334 15.5391 6.14584 15.5338 6.20834 15.5338C6.43229 15.5182 6.64323 15.4635 6.84115 15.3698C7.03907 15.276 7.21615 15.1588 7.3724 15.0182C7.45052 14.9453 7.52344 14.8672 7.59115 14.7838C7.66407 14.6953 7.72657 14.6042 7.77865 14.5104C7.82552 14.4271 7.86979 14.3385 7.91146 14.2448C7.95313 14.1458 7.98438 14.0495 8.00521 13.9557C7.9375 13.9609 7.87761 13.9687 7.82552 13.9792C7.77344 13.9896 7.70834 14 7.63021 14.0104C7.58334 14.0104 7.53125 14.013 7.47396 14.0182C7.41667 14.0182 7.36459 14.0182 7.31771 14.0182C7.21354 14.0182 7.11198 14.026 7.01302 14.0417C6.91927 14.0573 6.83073 14.0781 6.7474 14.1042C6.6849 14.1198 6.6224 14.1458 6.5599 14.1823C6.50261 14.2187 6.45052 14.2604 6.40365 14.3073C6.35157 14.3594 6.28386 14.375 6.20052 14.3542C6.1224 14.3333 6.125 14.2135 6.20834 13.9948C6.23959 13.8958 6.28646 13.8021 6.34896 13.7135C6.41146 13.625 6.48177 13.5443 6.5599 13.4713C6.6224 13.4141 6.69271 13.362 6.77084 13.3151C6.85417 13.263 6.94271 13.2213 7.03646 13.1901C7.14584 13.1484 7.26823 13.1146 7.40365 13.0885C7.54427 13.0573 7.69271 13.0364 7.84896 13.026C7.91146 13.0208 7.96875 13.0208 8.02084 13.026C8.07813 13.026 8.14844 13.0234 8.23177 13.0182C8.21094 12.6901 8.11979 12.4739 7.95834 12.3698C7.80209 12.2656 7.57032 12.2135 7.26302 12.2135C7.17969 12.2135 7.09375 12.2239 7.00521 12.2448C6.91667 12.2656 6.83334 12.2891 6.75521 12.3151C6.67188 12.3411 6.59115 12.3776 6.51302 12.4245C6.4349 12.4661 6.35938 12.5052 6.28646 12.5417C6.25 12.5677 6.22396 12.6068 6.20834 12.6588C6.19271 12.7057 6.16927 12.7396 6.13802 12.7604C6.11198 12.776 6.07032 12.7838 6.01302 12.7838C5.96094 12.7838 5.92709 12.7917 5.91146 12.8073C5.89584 12.8281 5.85938 12.8437 5.80209 12.8542C5.74479 12.8646 5.69271 12.8594 5.64584 12.8385C5.59896 12.8177 5.5625 12.7812 5.53646 12.7292C5.51042 12.6771 5.50782 12.625 5.52865 12.5729C5.55469 12.5104 5.58073 12.4323 5.60677 12.3385C5.63802 12.2396 5.66927 12.151 5.70052 12.0729C5.72657 12.0156 5.75521 11.9635 5.78646 11.9167C5.82292 11.8698 5.86459 11.8333 5.91146 11.8073C5.95313 11.776 5.9974 11.7448 6.04427 11.7135C6.09636 11.6771 6.14844 11.6432 6.20052 11.612C6.26823 11.5807 6.34636 11.5521 6.4349 11.526C6.52865 11.4948 6.61459 11.4661 6.69271 11.4401C6.79167 11.4088 6.89323 11.375 6.9974 11.3385C7.10677 11.3021 7.21354 11.2734 7.31771 11.2526C7.42188 11.237 7.52604 11.2239 7.63021 11.2135C7.73959 11.2031 7.84115 11.1979 7.9349 11.1979C8.01823 11.1979 8.09896 11.2057 8.17709 11.2213C8.25521 11.2318 8.32813 11.2448 8.39584 11.2604C8.46354 11.276 8.53386 11.2917 8.60677 11.3073C8.67969 11.3229 8.74479 11.3463 8.80209 11.3776C8.86459 11.4036 8.92188 11.4401 8.97396 11.487C9.03125 11.5338 9.08334 11.5781 9.13021 11.6198C9.16667 11.651 9.20573 11.6875 9.2474 11.7292C9.28907 11.7656 9.32552 11.8073 9.35677 11.8542C9.39323 11.9167 9.42188 11.9896 9.44271 12.0729C9.46354 12.1562 9.48177 12.2396 9.4974 12.3229C9.51302 12.4167 9.52604 12.513 9.53646 12.612C9.55209 12.7109 9.55469 12.8099 9.54427 12.9088C9.58073 12.9088 9.61979 12.9088 9.66146 12.9088C9.70834 12.9088 9.73959 12.9219 9.75521 12.9479C9.78125 12.9739 9.79167 13.026 9.78646 13.1042C9.78646 13.1771 9.78386 13.2682 9.77865 13.3776C9.77865 13.4088 9.77344 13.4557 9.76302 13.5182C9.75261 13.5807 9.72136 13.6328 9.66927 13.6745C9.64323 13.6953 9.60417 13.7135 9.55209 13.7292C9.50521 13.7396 9.45834 13.7448 9.41146 13.7448C9.39584 13.8489 9.36459 13.9687 9.31771 14.1042C9.27084 14.2396 9.22396 14.3672 9.17709 14.487C9.15104 14.5443 9.1224 14.6016 9.09115 14.6588C9.0599 14.7109 9.02865 14.7578 8.9974 14.7995C9.14844 14.7838 9.27604 14.7266 9.38021 14.6276C9.48438 14.5234 9.58594 14.4193 9.6849 14.3151L9.95052 15.0338ZM9.64584 14.3385C9.67709 14.3021 9.71354 14.2552 9.75521 14.1979C9.79688 14.1354 9.84375 14.0677 9.89584 13.9948C10.125 13.7083 10.3464 13.4531 10.5599 13.2292C10.7786 13 10.9844 12.7969 11.1771 12.6198C11.276 12.526 11.3958 12.4062 11.5365 12.2604C11.6771 12.1094 11.8411 11.9375 12.0286 11.7448C12.2161 11.6719 12.4219 11.5885 12.6458 11.4948C12.7865 11.4948 12.8906 11.5417 12.9583 11.6354C13.026 11.7239 13.0599 11.8542 13.0599 12.026C13.0599 12.1719 13.0469 12.3307 13.0208 12.5026C13 12.6693 12.9688 12.8411 12.9271 13.0182C12.8802 13.1588 12.8411 13.2943 12.8099 13.4245C12.8099 13.4609 12.8177 13.4896 12.8333 13.5104C12.849 13.526 12.875 13.5338 12.9115 13.5338C12.9896 13.4974 13.1406 13.3672 13.3646 13.1432C13.5885 12.9193 13.8828 12.6068 14.2474 12.2057C14.5599 11.862 14.8333 11.6068 15.0677 11.4401C15.3021 11.2682 15.4896 11.1823 15.6302 11.1823C15.7813 11.1823 15.8906 11.2396 15.9583 11.3542C16.0313 11.4635 16.0677 11.6276 16.0677 11.8463C16.0677 12.1641 16.0443 12.4713 15.9974 12.7682C15.9505 13.0599 15.8698 13.3411 15.7552 13.612C15.7344 13.6641 15.7214 13.7083 15.7161 13.7448C15.7109 13.7812 15.7083 13.8151 15.7083 13.8463C15.7083 13.8828 15.7396 13.9167 15.8021 13.9479C15.8438 13.9114 15.8906 13.8594 15.9427 13.7917C16 13.7239 16.0651 13.638 16.138 13.5338C16.2578 13.4349 16.3776 13.3359 16.4974 13.237C16.6172 13.138 16.7474 13.0364 16.888 12.9323C17.0339 12.8177 17.1823 12.7318 17.3333 12.6745C17.4844 12.612 17.6328 12.5807 17.7786 12.5807C17.8047 12.5807 17.8307 12.5885 17.8568 12.6042C17.8828 12.6198 17.9089 12.638 17.9349 12.6588C18.0547 12.763 18.1536 12.8594 18.2318 12.9479C18.3099 13.0312 18.3646 13.1042 18.3958 13.1667C18.599 13.5833 18.7786 13.8958 18.9349 14.1042C19.0964 14.3073 19.237 14.4088 19.3568 14.4088C19.3828 14.4088 19.4089 14.4036 19.4349 14.3932C19.4609 14.3776 19.487 14.3594 19.513 14.3385C19.6328 14.5937 19.7344 14.8333 19.8177 15.0573C19.6302 15.2031 19.4635 15.3151 19.3177 15.3932C19.1719 15.4661 19.0443 15.5026 18.9349 15.5026C18.5755 15.5026 18.2031 15.2708 17.8177 14.8073C17.4375 14.3385 17.1458 14.1042 16.9427 14.1042C16.6719 14.1042 16.2214 14.5052 15.5911 15.3073C14.9609 16.1042 14.5677 16.5026 14.4115 16.5026C14.3333 16.5026 14.2292 16.4948 14.099 16.4792C14.0573 16.4635 14.026 16.4323 14.0052 16.3854C13.9844 16.3333 13.974 16.2734 13.974 16.2057C13.974 16.1276 13.9896 16.026 14.0208 15.901C14.0521 15.7708 14.0938 15.6198 14.1458 15.4479C14.2135 15.2292 14.2682 15.0547 14.3099 14.9245C14.3516 14.7943 14.375 14.7031 14.3802 14.651C14.3958 14.5833 14.4167 14.4505 14.4427 14.2526C14.474 14.0547 14.513 13.7917 14.5599 13.4635C14.5599 13.4062 14.5443 13.362 14.513 13.3307C14.4818 13.2995 14.4453 13.2838 14.4036 13.2838C14.3672 13.2838 14.3255 13.2969 14.2786 13.3229C14.237 13.3437 14.1875 13.3802 14.1302 13.4323C14.0677 13.5 13.9974 13.5677 13.9193 13.6354C13.8464 13.7031 13.7266 13.7995 13.5599 13.9245C13.3776 14.1328 13.1901 14.3463 12.9974 14.5651C12.8099 14.7786 12.6172 14.9948 12.4193 15.2135C12.1068 15.5781 11.8568 15.8489 11.6693 16.026C11.487 16.1979 11.3698 16.2838 11.3177 16.2838C11.1615 16.2838 11.0417 16.2656 10.9583 16.2292C10.8802 16.1927 10.8411 16.138 10.8411 16.0651C10.8411 15.8932 10.9323 15.5364 11.1146 14.9948C11.3021 14.4479 11.3958 14.0625 11.3958 13.8385C11.3958 13.8021 11.3828 13.7734 11.3568 13.7526C11.3359 13.7266 11.3073 13.7135 11.2708 13.7135C11.2083 13.7135 11.1328 13.75 11.0443 13.8229C10.9609 13.8906 10.8646 14 10.7552 14.151C10.6823 14.2344 10.5938 14.3307 10.4896 14.4401C10.3854 14.5495 10.2578 14.6771 10.1068 14.8229C10.0911 14.8646 10.0703 14.9062 10.0443 14.9479C10.0182 14.9844 9.98959 15.0208 9.95834 15.0573C9.9375 14.9792 9.90104 14.8828 9.84896 14.7682C9.79688 14.6536 9.72917 14.5104 9.64584 14.3385ZM19.5052 14.3385C19.5417 14.3021 19.5807 14.2552 19.6224 14.1979C19.6589 14.1354 19.7031 14.0677 19.7552 13.9948L20.3568 13.5807C20.4297 13.4922 20.5417 13.3802 20.6927 13.2448C20.8438 13.1042 21.0313 12.9349 21.2552 12.737C21.2813 12.6797 21.3229 12.6146 21.3802 12.5417C21.4427 12.4635 21.5156 12.388 21.599 12.3151C21.6719 12.2474 21.7448 12.1849 21.8177 12.1276C21.8906 12.0651 21.9583 12.0052 22.0208 11.9479C22.099 11.8698 22.1719 11.7917 22.2396 11.7135C22.3125 11.6354 22.3854 11.5599 22.4583 11.487C22.5417 11.4141 22.6276 11.3568 22.7161 11.3151C22.8047 11.2734 22.901 11.2526 23.0052 11.2526C23.1198 11.2526 23.2057 11.2682 23.263 11.2995C23.3255 11.3255 23.3594 11.3646 23.3646 11.4167C23.3125 11.5364 23.2578 11.6562 23.2005 11.776L23.2474 11.8463C23.4766 11.7578 23.6563 11.6927 23.7865 11.651C23.9167 11.6094 24 11.5885 24.0365 11.5885C24.4167 11.5885 24.7005 11.7057 24.888 11.9401C25.0807 12.1693 25.1771 12.5182 25.1771 12.987C25.1771 13.0755 25.1667 13.1797 25.1458 13.2995C25.125 13.4193 25.0911 13.5495 25.0443 13.6901C24.9922 13.8463 24.9349 13.9766 24.8724 14.0807C24.8151 14.1849 24.7604 14.2604 24.7083 14.3073C24.7292 14.375 24.7526 14.4245 24.7786 14.4557C24.8047 14.4818 24.8385 14.4948 24.8802 14.4948C24.9219 14.4948 24.9635 14.4818 25.0052 14.4557C25.0521 14.4297 25.1068 14.3906 25.1693 14.3385C25.2214 14.4531 25.2708 14.5729 25.3177 14.6979C25.3698 14.8177 25.4219 14.9375 25.474 15.0573C25.3802 15.1406 25.2891 15.2213 25.2005 15.2995C25.112 15.3776 25.0182 15.4531 24.9193 15.526C24.7995 15.625 24.6849 15.6979 24.5755 15.7448C24.4714 15.7864 24.3672 15.8073 24.263 15.8073C24.1432 15.8073 24.0443 15.7786 23.9661 15.7213C23.888 15.6641 23.8255 15.5833 23.7786 15.4792C23.6484 15.651 23.4896 15.8099 23.3021 15.9557C23.1198 16.0963 22.9167 16.2135 22.6927 16.3073C22.5625 16.3698 22.4427 16.4193 22.3333 16.4557C22.2292 16.487 22.1328 16.5026 22.0443 16.5026C22.0182 16.5026 21.9661 16.513 21.888 16.5338C21.8151 16.5547 21.7552 16.5651 21.7083 16.5651C21.4115 16.5651 21.1432 16.4401 20.9036 16.1901C20.6641 15.9401 20.5443 15.6614 20.5443 15.3542C20.5443 15.2292 20.5729 15.0651 20.6302 14.862C20.6875 14.6536 20.7161 14.5312 20.7161 14.4948C20.7161 14.4583 20.7031 14.4297 20.6771 14.4088C20.6563 14.3828 20.625 14.3698 20.5833 14.3698C20.5573 14.3698 20.4948 14.4088 20.3958 14.487C20.2969 14.5651 20.1563 14.6771 19.974 14.8229C19.9583 14.8437 19.9401 14.875 19.9193 14.9167C19.8984 14.9583 19.8646 15.0052 19.8177 15.0573C19.776 14.9375 19.7292 14.8177 19.6771 14.6979C19.625 14.5729 19.5677 14.4531 19.5052 14.3385ZM23.263 12.9088C23.237 12.9141 23.1979 12.9427 23.1458 12.9948C23.099 13.0417 23.0521 13.1016 23.0052 13.1745C22.9323 13.2943 22.849 13.4245 22.7552 13.5651C22.6979 13.6276 22.6354 13.6771 22.5677 13.7135C22.5052 13.7448 22.4323 13.7682 22.349 13.7838C22.2969 13.7891 22.2422 13.8411 22.1849 13.9401C22.1276 14.0338 22.0703 14.1719 22.013 14.3542C21.9557 14.5156 21.9141 14.6536 21.888 14.7682C21.862 14.8828 21.849 14.9792 21.849 15.0573C21.849 15.2031 21.8854 15.3125 21.9583 15.3854C22.0313 15.4583 22.1432 15.4948 22.2943 15.4948C22.5339 15.4948 22.7526 15.4297 22.9505 15.2995C23.1536 15.1641 23.3438 14.9635 23.5208 14.6979C23.6042 14.5989 23.6823 14.5052 23.7552 14.4167C23.7969 14.3854 23.8307 14.3359 23.8568 14.2682C23.8828 14.1953 23.9089 14.1068 23.9349 14.0026L24.0755 13.5573C24.0286 13.401 23.9844 13.2786 23.9427 13.1901C23.901 13.0963 23.8594 13.0391 23.8177 13.0182C23.7917 13.0026 23.7344 12.987 23.6458 12.9713C23.5573 12.9505 23.4297 12.9297 23.263 12.9088ZM35.4115 14.9401C35.3646 14.9922 35.3125 15.0469 35.2552 15.1042C35.1979 15.1562 35.1432 15.2057 35.0911 15.2526C34.987 15.3463 34.8776 15.4401 34.763 15.5338C34.6484 15.6224 34.5365 15.7057 34.4271 15.7838C34.3177 15.862 34.2057 15.9323 34.0911 15.9948C33.9818 16.0573 33.8802 16.1068 33.7865 16.1432C33.6667 16.1901 33.5495 16.2239 33.4349 16.2448C33.3203 16.2604 33.2135 16.2604 33.1146 16.2448C33.0052 16.2292 32.9036 16.1875 32.8099 16.1198C32.7161 16.0521 32.6328 15.9583 32.5599 15.8385C32.513 15.7552 32.4844 15.6562 32.474 15.5417C32.4635 15.4271 32.4661 15.3073 32.4818 15.1823C32.487 15.0885 32.5026 14.9896 32.5286 14.8854C32.5547 14.776 32.5833 14.6719 32.6146 14.5729C32.6458 14.4739 32.6771 14.375 32.7083 14.276C32.7396 14.1771 32.763 14.0885 32.7786 14.0104C32.7943 13.9479 32.8177 13.888 32.849 13.8307C32.8854 13.7734 32.9115 13.7135 32.9271 13.651C32.9375 13.6042 32.9401 13.5495 32.9349 13.487C32.9297 13.4245 32.9271 13.3698 32.9271 13.3229C32.9323 13.2239 32.9297 13.1276 32.9193 13.0338C32.9089 12.9401 32.8828 12.8594 32.8411 12.7917C32.8151 12.7448 32.776 12.7057 32.724 12.6745C32.6719 12.638 32.612 12.612 32.5443 12.5963C32.5286 12.6588 32.5078 12.7239 32.4818 12.7917C32.4609 12.8594 32.4401 12.9245 32.4193 12.987C32.3776 13.1016 32.3307 13.2213 32.2786 13.3463C32.2266 13.4713 32.1771 13.5937 32.1302 13.7135C32.1146 13.7656 32.0807 13.8203 32.0286 13.8776C31.9766 13.9349 31.9401 13.9896 31.9193 14.0417C31.8464 14.2031 31.7813 14.3672 31.724 14.5338C31.6667 14.7005 31.599 14.8594 31.5208 15.0104C31.4167 15.2083 31.3073 15.3984 31.1927 15.5807C31.0833 15.763 30.9766 15.9323 30.8724 16.0885C30.7734 16.2396 30.6719 16.3776 30.5677 16.5026C30.4688 16.6224 30.3724 16.7213 30.2786 16.7995C30.2057 16.862 30.1328 16.9114 30.0599 16.9479C29.987 16.9896 29.9193 17.0104 29.8568 17.0104C29.7786 17.0104 29.7031 16.9948 29.6302 16.9635C29.5625 16.9323 29.5 16.8932 29.4427 16.8463C29.3802 16.7838 29.3229 16.7083 29.2708 16.6198C29.2188 16.526 29.1771 16.4245 29.1458 16.3151C29.1198 16.2266 29.099 16.1328 29.0833 16.0338C29.0625 15.9349 29.0521 15.8333 29.0521 15.7292C29.0469 15.5937 29.0469 15.4531 29.0521 15.3073C29.0573 15.1562 29.0677 15.0104 29.0833 14.8698C29.0938 14.7917 29.1068 14.7135 29.1224 14.6354C29.138 14.5573 29.1536 14.4792 29.1693 14.401C29.1797 14.3542 29.2188 14.3073 29.2865 14.2604C29.3542 14.2135 29.4219 14.1901 29.4896 14.1901C29.5521 14.1901 29.6068 14.2109 29.6536 14.2526C29.7057 14.2891 29.7318 14.3229 29.7318 14.3542C29.7318 14.401 29.7344 14.4661 29.7396 14.5495C29.75 14.6328 29.7604 14.7213 29.7708 14.8151C29.7917 14.9974 29.8281 15.1745 29.8802 15.3463C29.9323 15.5182 29.9974 15.6042 30.0755 15.6042C30.2318 15.6042 30.4193 15.4531 30.638 15.151C30.862 14.8437 31.0547 14.5286 31.2161 14.2057C31.2422 14.1484 31.276 14.0911 31.3177 14.0338C31.3646 13.9713 31.4036 13.9062 31.4349 13.8385C31.4557 13.7864 31.4714 13.7266 31.4818 13.6588C31.4922 13.5911 31.5104 13.5338 31.5365 13.487C31.5625 13.4401 31.5964 13.3932 31.638 13.3463C31.6797 13.2943 31.7083 13.2448 31.724 13.1979C31.7552 13.1198 31.7813 13.0443 31.8021 12.9713C31.8281 12.8984 31.8542 12.8307 31.8802 12.7682C31.9115 12.6901 31.9401 12.6172 31.9661 12.5495C31.9922 12.4818 32.013 12.4297 32.0286 12.3932C31.9245 12.3307 31.8385 12.2708 31.7708 12.2135C31.7031 12.1562 31.6536 12.1042 31.6224 12.0573C31.5911 12 31.5703 11.9453 31.5599 11.8932C31.5547 11.8359 31.5573 11.7838 31.5677 11.737C31.5833 11.6797 31.6094 11.6276 31.6458 11.5807C31.6875 11.5338 31.7266 11.487 31.763 11.4401C31.7995 11.4036 31.8359 11.3646 31.8724 11.3229C31.9089 11.2812 31.9375 11.2448 31.9583 11.2135C32.0052 11.2135 32.0625 11.2057 32.1302 11.1901C32.2031 11.1745 32.2708 11.151 32.3333 11.1198C32.3594 11.1042 32.3724 11.0729 32.3724 11.026C32.3776 10.9792 32.3932 10.9453 32.4193 10.9245C32.4505 10.8984 32.4922 10.888 32.5443 10.8932C32.6016 10.8932 32.6432 10.888 32.6693 10.8776C32.7786 10.8307 32.8672 10.8307 32.9349 10.8776C33.0026 10.9245 33.0156 11.0911 32.974 11.3776C33.0208 11.4036 33.0677 11.4323 33.1146 11.4635C33.1667 11.4896 33.2135 11.5156 33.2552 11.5417C33.3438 11.5989 33.4297 11.6614 33.513 11.7292C33.5964 11.7969 33.6693 11.862 33.7318 11.9245C33.8047 12.0026 33.862 12.0833 33.9036 12.1667C33.9505 12.25 33.987 12.3307 34.013 12.4088C34.0391 12.487 34.0573 12.5703 34.0677 12.6588C34.0833 12.7422 34.0911 12.8229 34.0911 12.901C34.0911 13.0052 34.0833 13.112 34.0677 13.2213C34.0521 13.3307 34.0313 13.4323 34.0052 13.526C33.9948 13.5781 33.9661 13.6354 33.9193 13.6979C33.8776 13.7552 33.849 13.8151 33.8333 13.8776C33.8229 13.9088 33.8203 13.9453 33.8255 13.987C33.8359 14.0286 33.8359 14.0651 33.8255 14.0963C33.7943 14.2057 33.7578 14.3177 33.7161 14.4323C33.6797 14.5417 33.6563 14.6432 33.6458 14.737C33.6354 14.8307 33.6432 14.9114 33.6693 14.9792C33.6953 15.0417 33.7344 15.0885 33.7865 15.1198C33.8229 15.1406 33.8698 15.1458 33.9271 15.1354C33.9896 15.1198 34.0547 15.0963 34.1224 15.0651C34.2005 15.0234 34.2891 14.9661 34.388 14.8932C34.487 14.8151 34.5807 14.737 34.6693 14.6588C34.7526 14.5859 34.8307 14.513 34.9036 14.4401C34.9766 14.362 35.0365 14.2969 35.0833 14.2448L35.4115 14.9401ZM35.099 14.3385C35.1615 14.2292 35.2422 14.1198 35.3411 14.0104C35.4401 13.8958 35.5651 13.7786 35.7161 13.6588C35.7318 13.5547 35.7474 13.4531 35.763 13.3542C35.7786 13.25 35.7891 13.1458 35.7943 13.0417C35.8099 12.9687 35.8333 12.8828 35.8646 12.7838C35.901 12.6849 35.9401 12.5781 35.9818 12.4635C36.0286 12.3489 36.0911 12.2057 36.1693 12.0338C36.2526 11.862 36.3594 11.6693 36.4896 11.4557C36.599 11.3359 36.7135 11.2057 36.8333 11.0651C36.9531 10.9193 37.0729 10.7734 37.1927 10.6276C37.25 10.5807 37.3125 10.5364 37.3802 10.4948C37.4479 10.4531 37.5156 10.4062 37.5833 10.3542C37.6458 10.3333 37.7161 10.3151 37.7943 10.2995C37.8724 10.2838 37.9583 10.276 38.0521 10.276C38.1823 10.276 38.2865 10.2891 38.3646 10.3151C38.4479 10.3411 38.5156 10.3854 38.5677 10.4479C38.6042 10.4896 38.638 10.5521 38.6693 10.6354C38.7057 10.7187 38.7396 10.8203 38.7708 10.9401C38.7865 11.0443 38.8047 11.1588 38.8255 11.2838C38.8255 11.2526 38.8151 11.2656 38.7943 11.3229C38.7786 11.3802 38.7526 11.4713 38.7161 11.5963L38.6458 11.8463C38.5729 12.0963 38.4089 12.3854 38.1536 12.7135C37.8984 13.0417 37.5547 13.4167 37.1224 13.8385C37.0859 13.875 37.0547 13.9219 37.0286 13.9792C37.0026 14.0312 36.9896 14.0885 36.9896 14.151C36.9896 14.2604 37.0078 14.3568 37.0443 14.4401C37.0859 14.5234 37.1432 14.5859 37.2161 14.6276C37.2578 14.6588 37.3229 14.6901 37.4115 14.7213C37.5052 14.7526 37.6146 14.7812 37.7396 14.8073C37.9427 14.7917 38.1276 14.7578 38.2943 14.7057C38.4609 14.6536 38.6094 14.5911 38.7396 14.5182C38.7656 14.5026 38.8073 14.4818 38.8646 14.4557C38.9219 14.4245 38.9792 14.3854 39.0365 14.3385C39.1042 14.4896 39.1641 14.625 39.2161 14.7448C39.2682 14.8646 39.3099 14.9687 39.3411 15.0573C39.0443 15.3489 38.7734 15.5703 38.5286 15.7213C38.2891 15.8672 38.0677 15.9401 37.8646 15.9401C37.7813 15.9922 37.6849 16.0312 37.5755 16.0573C37.4714 16.0781 37.3464 16.0885 37.2005 16.0885C37.0078 16.0885 36.8359 16.0599 36.6849 16.0026C36.5391 15.9453 36.4167 15.862 36.3177 15.7526C36.2656 15.7005 36.2135 15.625 36.1615 15.526C36.1094 15.4219 36.0547 15.2995 35.9974 15.1588C35.9505 15.0443 35.9063 14.9609 35.8646 14.9088C35.8229 14.8516 35.776 14.8229 35.724 14.8229C35.6823 14.8229 35.6354 14.8437 35.5833 14.8854C35.5313 14.9219 35.474 14.9792 35.4115 15.0573C35.3906 14.9792 35.3542 14.8828 35.3021 14.7682C35.25 14.6536 35.1823 14.5104 35.099 14.3385ZM37.599 11.7995C37.4844 11.7995 37.3307 11.9505 37.138 12.2526C36.9453 12.5495 36.849 12.7682 36.849 12.9088C36.849 12.9401 36.8542 12.9635 36.8646 12.9792C36.8802 12.9896 36.9089 12.9948 36.9505 12.9948C37.0078 12.9948 37.0547 12.9661 37.0911 12.9088C37.1276 12.8463 37.1615 12.7891 37.1927 12.737C37.25 12.6849 37.3047 12.6302 37.3568 12.5729C37.4141 12.5104 37.4688 12.4505 37.5208 12.3932C37.5833 12.3203 37.6302 12.2474 37.6615 12.1745C37.6927 12.1016 37.7083 12.0286 37.7083 11.9557C37.7083 11.9088 37.6979 11.8724 37.6771 11.8463C37.6615 11.8151 37.6354 11.7995 37.599 11.7995ZM43.8568 15.0026C43.8359 15.0703 43.7734 15.1614 43.6693 15.276C43.5703 15.3854 43.4479 15.5 43.3021 15.6198C43.2135 15.6927 43.1146 15.7682 43.0052 15.8463C42.8958 15.9245 42.7865 15.9974 42.6771 16.0651C42.5 16.1745 42.3203 16.2708 42.138 16.3542C41.9557 16.4323 41.7708 16.4948 41.5833 16.5417C41.4271 16.5833 41.2656 16.6146 41.099 16.6354C40.9323 16.6562 40.763 16.6667 40.5911 16.6667C40.5495 16.6667 40.5052 16.6588 40.4583 16.6432C40.4167 16.6224 40.3776 16.6042 40.3411 16.5885C40.2786 16.5625 40.2188 16.5312 40.1615 16.4948C40.1042 16.4531 40.0573 16.3958 40.0208 16.3229C39.9896 16.2604 39.9635 16.1849 39.9427 16.0963C39.9219 16.0026 39.9115 15.901 39.9115 15.7917C39.9115 15.7135 39.9297 15.625 39.9661 15.526C40.0026 15.4271 40.0521 15.3229 40.1146 15.2135C40.1354 15.1719 40.1719 15.1302 40.224 15.0885C40.276 15.0469 40.3177 15.0026 40.349 14.9557C40.3958 14.8932 40.4375 14.8281 40.474 14.7604C40.5104 14.6927 40.5521 14.6276 40.599 14.5651C40.6719 14.4766 40.7474 14.3906 40.8255 14.3073C40.9089 14.2187 40.987 14.138 41.0599 14.0651C41.1536 13.9713 41.237 13.8854 41.3099 13.8073C41.3828 13.7239 41.4323 13.6588 41.4583 13.612C41.474 13.5859 41.4974 13.5364 41.5286 13.4635C41.5443 13.4167 41.5495 13.3463 41.5443 13.2526C41.4505 13.2213 41.3776 13.2135 41.3255 13.2292C41.2995 13.2396 41.2682 13.2578 41.2318 13.2838C41.2005 13.3047 41.1693 13.3255 41.138 13.3463C41.0911 13.3776 41.0391 13.4193 40.9818 13.4713C40.9245 13.5182 40.8646 13.5703 40.8021 13.6276C40.6719 13.7526 40.5286 13.8984 40.3724 14.0651C40.2161 14.2318 40.0599 14.3932 39.9036 14.5495C39.7943 14.6588 39.6849 14.7656 39.5755 14.8698C39.4661 14.9739 39.3672 15.0599 39.2786 15.1276L38.9661 14.4167C39.0495 14.3333 39.1354 14.25 39.224 14.1667C39.3125 14.0781 39.3958 13.9948 39.474 13.9167C39.6354 13.7604 39.7969 13.6068 39.9583 13.4557C40.1198 13.3047 40.276 13.1667 40.4271 13.0417C40.5208 12.9635 40.6042 12.8854 40.6771 12.8073C40.7552 12.7292 40.8359 12.6588 40.9193 12.5963C40.9766 12.5547 41.0417 12.5182 41.1146 12.487C41.1927 12.4505 41.2578 12.4167 41.3099 12.3854C41.3828 12.3385 41.4583 12.2995 41.5365 12.2682C41.6146 12.237 41.6849 12.2083 41.7474 12.1823C41.8151 12.1614 41.8802 12.1406 41.9427 12.1198C42.0052 12.0989 42.0625 12.0885 42.1146 12.0885C42.1823 12.0885 42.2604 12.0937 42.349 12.1042C42.4375 12.1146 42.513 12.1354 42.5755 12.1667C42.6484 12.1979 42.7083 12.2422 42.7552 12.2995C42.8021 12.3516 42.8438 12.4088 42.8802 12.4713C42.9115 12.5182 42.9323 12.5755 42.9427 12.6432C42.9583 12.7109 42.9661 12.7812 42.9661 12.8542C42.9661 12.901 42.9505 12.9531 42.9193 13.0104C42.8932 13.0677 42.8646 13.1276 42.8333 13.1901C42.8125 13.237 42.7891 13.2838 42.763 13.3307C42.737 13.3776 42.7057 13.4245 42.6693 13.4713C42.6016 13.5495 42.5078 13.6484 42.388 13.7682C42.2734 13.888 42.1563 14.0104 42.0365 14.1354C41.8802 14.3073 41.737 14.4739 41.6068 14.6354C41.4818 14.7969 41.4193 14.9245 41.4193 15.0182C41.4141 15.138 41.4479 15.2318 41.5208 15.2995C41.599 15.3672 41.6771 15.401 41.7552 15.401C41.8229 15.401 41.8932 15.3932 41.9661 15.3776C42.0391 15.362 42.112 15.3411 42.1849 15.3151C42.3151 15.2682 42.4479 15.2057 42.5833 15.1276C42.7188 15.0495 42.8464 14.9635 42.9661 14.8698C43.0703 14.7864 43.1693 14.6979 43.263 14.6042C43.3568 14.5052 43.4375 14.4088 43.5052 14.3151L43.8568 15.0026ZM50.4115 14.9245C50.375 14.9661 50.3333 15.0078 50.2865 15.0495C50.2448 15.0911 50.2031 15.1302 50.1615 15.1667C50.0521 15.2656 49.9349 15.362 49.8099 15.4557C49.6901 15.5443 49.5755 15.6198 49.4661 15.6823C49.3828 15.7292 49.2969 15.7734 49.2083 15.8151C49.125 15.8568 49.0443 15.8906 48.9661 15.9167C48.888 15.9479 48.8125 15.9713 48.7396 15.987C48.6667 16.0026 48.6016 16.0104 48.5443 16.0104C48.4505 16.0104 48.3568 16 48.263 15.9792C48.1745 15.9531 48.0911 15.9219 48.013 15.8854C47.9089 15.8385 47.8073 15.776 47.7083 15.6979C47.6146 15.6198 47.5234 15.5338 47.4349 15.4401C47.3776 15.3776 47.3125 15.3099 47.2396 15.237C47.1719 15.1588 47.0964 15.0651 47.013 14.9557C46.9818 14.9974 46.9479 15.0417 46.9115 15.0885C46.875 15.1302 46.8411 15.1719 46.8099 15.2135C46.7474 15.2969 46.6875 15.3776 46.6302 15.4557C46.5729 15.5286 46.513 15.6042 46.4505 15.6823C46.3672 15.7864 46.3047 15.8568 46.263 15.8932C46.2266 15.9245 46.1667 15.9844 46.0833 16.0729C46.0104 16.151 45.9453 16.237 45.888 16.3307C45.8359 16.4193 45.7786 16.4974 45.7161 16.5651C45.5443 16.737 45.388 16.8698 45.2474 16.9635C45.112 17.0573 45.026 17.1042 44.9896 17.1042C44.8021 17.0625 44.6641 16.9896 44.5755 16.8854C44.4922 16.7812 44.4323 16.6458 44.3958 16.4792C44.3594 16.3177 44.3542 16.1406 44.3802 15.9479C44.4115 15.7552 44.4479 15.5703 44.4896 15.3932C44.5208 15.263 44.5599 15.1198 44.6068 14.9635C44.6589 14.8073 44.7083 14.6588 44.7552 14.5182C44.8073 14.3359 44.8516 14.1771 44.888 14.0417C44.9245 13.9062 44.9297 13.8307 44.9036 13.8151C44.8776 13.7995 44.8255 13.8411 44.7474 13.9401C44.6693 14.0391 44.5859 14.1484 44.4974 14.2682C44.388 14.4141 44.276 14.5625 44.1615 14.7135C44.0469 14.8594 43.8984 15.0026 43.7161 15.1432L43.4115 14.4323C43.6094 14.2604 43.8359 14.0312 44.0911 13.7448C44.3516 13.4531 44.6719 13.0833 45.0521 12.6354C45.4375 12.1771 45.7005 11.8542 45.8411 11.6667C45.987 11.4739 46.1615 11.4375 46.3646 11.5573C46.401 11.5781 46.4401 11.6094 46.4818 11.651C46.5234 11.6927 46.5495 11.7448 46.5599 11.8073C46.5651 11.8542 46.5703 11.9167 46.5755 11.9948C46.5859 12.0677 46.5885 12.1354 46.5833 12.1979C46.5781 12.2552 46.5521 12.3151 46.5052 12.3776C46.4635 12.4349 46.4323 12.4922 46.4115 12.5495C46.3958 12.612 46.3854 12.6797 46.3802 12.7526C46.3802 12.8255 46.3724 12.8984 46.3568 12.9713C46.3359 13.0599 46.3099 13.1588 46.2786 13.2682C46.2474 13.3724 46.2161 13.4792 46.1849 13.5885C46.1536 13.7031 46.1172 13.8229 46.0755 13.9479C46.0391 14.0677 46.0052 14.1875 45.974 14.3073C45.9531 14.3854 45.9297 14.4687 45.9036 14.5573C45.8776 14.6458 45.8568 14.7292 45.8411 14.8073C45.8255 14.8958 45.8099 14.9844 45.7943 15.0729C45.7839 15.1562 45.776 15.2344 45.7708 15.3073C45.7448 15.4635 45.7552 15.5391 45.8021 15.5338C45.8542 15.5234 45.9271 15.4401 46.0208 15.2838C46.0781 15.1901 46.1432 15.0807 46.2161 14.9557C46.2943 14.8307 46.3698 14.7239 46.4427 14.6354C46.4896 14.5781 46.5313 14.5312 46.5677 14.4948C46.6094 14.4531 46.6458 14.4062 46.6771 14.3542C46.6667 14.3177 46.638 14.2734 46.5911 14.2213C46.5443 14.1641 46.5208 14.1198 46.5208 14.0885C46.5208 14.0417 46.5313 13.9844 46.5521 13.9167C46.5729 13.8489 46.5885 13.7943 46.599 13.7526C46.6146 13.6849 46.6432 13.6146 46.6849 13.5417C46.7318 13.4687 46.7917 13.3958 46.8646 13.3229C46.9583 13.2292 47.0469 13.1641 47.1302 13.1276C47.2135 13.0859 47.2865 13.0677 47.349 13.0729C47.6823 12.5104 47.9609 12.0312 48.1849 11.6354C48.4141 11.2396 48.5599 10.9739 48.6224 10.8385C48.6693 10.7396 48.7474 10.6667 48.8568 10.6198C48.9661 10.5729 49.0677 10.5573 49.1615 10.5729C49.2656 10.5885 49.3516 10.6484 49.4193 10.7526C49.4922 10.8516 49.513 11 49.4818 11.1979C49.4766 11.2396 49.4583 11.2943 49.4271 11.362C49.401 11.4297 49.3646 11.5052 49.3177 11.5885C49.276 11.6719 49.2109 11.7682 49.1224 11.8776C49.0391 11.9818 48.9609 12.0937 48.888 12.2135C48.862 12.2604 48.8385 12.3125 48.8177 12.3698C48.7969 12.4271 48.7708 12.4792 48.7396 12.526C48.6979 12.5937 48.6354 12.7005 48.5521 12.8463C48.474 12.9922 48.4115 13.1016 48.3646 13.1745C48.2865 13.2995 48.2161 13.3906 48.1536 13.4479C48.0911 13.5052 48.013 13.5989 47.9193 13.7292C47.9557 13.8125 47.9922 13.8932 48.0286 13.9713C48.0703 14.0443 48.1146 14.1198 48.1615 14.1979C48.2083 14.2812 48.2604 14.3594 48.3177 14.4323C48.375 14.5052 48.4297 14.5651 48.4818 14.612C48.5391 14.6693 48.599 14.7161 48.6615 14.7526C48.7292 14.7838 48.7969 14.8047 48.8646 14.8151C48.9427 14.8307 49.026 14.8307 49.1146 14.8151C49.2083 14.7943 49.3021 14.7604 49.3958 14.7135C49.4583 14.6875 49.5234 14.651 49.5911 14.6042C49.6641 14.5573 49.7396 14.5052 49.8177 14.4479C49.8646 14.4114 49.9115 14.3724 49.9583 14.3307C50.0104 14.2891 50.0599 14.2474 50.1068 14.2057L50.4115 14.9245ZM50.0208 14.3385C50.0573 14.3021 50.0964 14.2552 50.138 14.1979C50.1745 14.1354 50.2188 14.0677 50.2708 13.9948L50.8724 13.5807C50.9453 13.4922 51.0573 13.3802 51.2083 13.2448C51.3594 13.1042 51.5469 12.9349 51.7708 12.737C51.7969 12.6797 51.8385 12.6146 51.8958 12.5417C51.9583 12.4635 52.0313 12.388 52.1146 12.3151C52.1875 12.2474 52.2604 12.1849 52.3333 12.1276C52.4063 12.0651 52.474 12.0052 52.5365 11.9479C52.6146 11.8698 52.6875 11.7917 52.7552 11.7135C52.8281 11.6354 52.901 11.5599 52.974 11.487C53.0573 11.4141 53.1432 11.3568 53.2318 11.3151C53.3203 11.2734 53.4167 11.2526 53.5208 11.2526C53.6354 11.2526 53.7214 11.2682 53.7786 11.2995C53.8411 11.3255 53.875 11.3646 53.8802 11.4167C53.8281 11.5364 53.7734 11.6562 53.7161 11.776L53.763 11.8463C53.9922 11.7578 54.1719 11.6927 54.3021 11.651C54.4323 11.6094 54.5156 11.5885 54.5521 11.5885C54.9323 11.5885 55.2161 11.7057 55.4036 11.9401C55.5964 12.1693 55.6927 12.5182 55.6927 12.987C55.6927 13.0755 55.6823 13.1797 55.6615 13.2995C55.6406 13.4193 55.6068 13.5495 55.5599 13.6901C55.5078 13.8463 55.4505 13.9766 55.388 14.0807C55.3307 14.1849 55.276 14.2604 55.224 14.3073C55.2448 14.375 55.2682 14.4245 55.2943 14.4557C55.3203 14.4818 55.3542 14.4948 55.3958 14.4948C55.4375 14.4948 55.4792 14.4818 55.5208 14.4557C55.5677 14.4297 55.6224 14.3906 55.6849 14.3385C55.737 14.4531 55.7865 14.5729 55.8333 14.6979C55.8854 14.8177 55.9375 14.9375 55.9896 15.0573C55.8958 15.1406 55.8047 15.2213 55.7161 15.2995C55.6276 15.3776 55.5339 15.4531 55.4349 15.526C55.3151 15.625 55.2005 15.6979 55.0911 15.7448C54.987 15.7864 54.8828 15.8073 54.7786 15.8073C54.6589 15.8073 54.5599 15.7786 54.4818 15.7213C54.4036 15.6641 54.3411 15.5833 54.2943 15.4792C54.1641 15.651 54.0052 15.8099 53.8177 15.9557C53.6354 16.0963 53.4323 16.2135 53.2083 16.3073C53.0781 16.3698 52.9583 16.4193 52.849 16.4557C52.7448 16.487 52.6484 16.5026 52.5599 16.5026C52.5339 16.5026 52.4818 16.513 52.4036 16.5338C52.3307 16.5547 52.2708 16.5651 52.224 16.5651C51.9271 16.5651 51.6589 16.4401 51.4193 16.1901C51.1797 15.9401 51.0599 15.6614 51.0599 15.3542C51.0599 15.2292 51.0885 15.0651 51.1458 14.862C51.2031 14.6536 51.2318 14.5312 51.2318 14.4948C51.2318 14.4583 51.2188 14.4297 51.1927 14.4088C51.1719 14.3828 51.1406 14.3698 51.099 14.3698C51.0729 14.3698 51.0104 14.4088 50.9115 14.487C50.8125 14.5651 50.6719 14.6771 50.4896 14.8229C50.474 14.8437 50.4557 14.875 50.4349 14.9167C50.4141 14.9583 50.3802 15.0052 50.3333 15.0573C50.2917 14.9375 50.2448 14.8177 50.1927 14.6979C50.1406 14.5729 50.0833 14.4531 50.0208 14.3385ZM53.7786 12.9088C53.7526 12.9141 53.7135 12.9427 53.6615 12.9948C53.6146 13.0417 53.5677 13.1016 53.5208 13.1745C53.4479 13.2943 53.3646 13.4245 53.2708 13.5651C53.2135 13.6276 53.151 13.6771 53.0833 13.7135C53.0208 13.7448 52.9479 13.7682 52.8646 13.7838C52.8125 13.7891 52.7578 13.8411 52.7005 13.9401C52.6432 14.0338 52.5859 14.1719 52.5286 14.3542C52.4714 14.5156 52.4297 14.6536 52.4036 14.7682C52.3776 14.8828 52.3646 14.9792 52.3646 15.0573C52.3646 15.2031 52.401 15.3125 52.474 15.3854C52.5469 15.4583 52.6589 15.4948 52.8099 15.4948C53.0495 15.4948 53.2682 15.4297 53.4661 15.2995C53.6693 15.1641 53.8594 14.9635 54.0365 14.6979C54.1198 14.5989 54.1979 14.5052 54.2708 14.4167C54.3125 14.3854 54.3464 14.3359 54.3724 14.2682C54.3984 14.1953 54.4245 14.1068 54.4505 14.0026L54.5911 13.5573C54.5443 13.401 54.5 13.2786 54.4583 13.1901C54.4167 13.0963 54.375 13.0391 54.3333 13.0182C54.3073 13.0026 54.25 12.987 54.1615 12.9713C54.0729 12.9505 53.9453 12.9297 53.7786 12.9088ZM58.2318 16.151C58.2318 16.2239 58.2109 16.2943 58.1693 16.362C58.1328 16.4297 58.0755 16.4948 57.9974 16.5573C57.9714 16.6354 57.9375 16.6927 57.8958 16.7292C57.8594 16.7708 57.8099 16.7917 57.7474 16.7917C57.5339 16.7917 57.3516 16.7161 57.2005 16.5651C57.0495 16.4141 56.9297 16.1901 56.8411 15.8932L56.8958 15.8385L56.8177 15.6354C56.8438 15.5521 56.8672 15.4713 56.888 15.3932C56.9089 15.3151 56.9297 15.237 56.9505 15.1588C56.9766 15.0599 57.0182 14.9896 57.0755 14.9479C57.138 14.901 57.2083 14.8776 57.2865 14.8776C57.4219 14.8776 57.5469 14.9141 57.6615 14.987C57.7813 15.0599 57.888 15.1719 57.9818 15.3229C58.0703 15.4583 58.1328 15.5963 58.1693 15.737C58.2109 15.8724 58.2318 16.0104 58.2318 16.151Z" fill="black"/>
<path d="M15 1.50927C15.2042 1.24883 15.5875 0.942189 15.9138 1.20961C16.08 1.34587 16.1468 1.58738 16.184 1.78929C16.2556 2.17865 16.2179 2.57996 16.0022 2.91918C15.8536 3.15274 15.6441 3.35018 15.4053 3.48904C15.3154 3.54129 15.0054 3.58729 15.1093 3.58729C15.2496 3.58729 15.3907 3.62613 15.5281 3.6487C15.9775 3.72248 16.4287 3.78535 16.8791 3.85257" stroke="#EDDC46" stroke-width="0.4" stroke-linecap="round"/>
<g filter="url(#filter0_d_7_64)">
<path d="M15 1.40295C15.2041 1.1425 15.5875 0.835865 15.9137 1.10328C16.08 1.23955 16.1468 1.48105 16.1839 1.68297C16.2556 2.07233 16.2179 2.47363 16.0022 2.81286C15.8536 3.04641 15.6441 3.24386 15.4053 3.38272C15.3154 3.43497 15.0054 3.48097 15.1093 3.48097C15.2495 3.48097 15.3907 3.51981 15.5281 3.54238C15.9775 3.61616 16.4287 3.67903 16.8791 3.74625" stroke="#EDDC46" stroke-width="0.4" stroke-linecap="round"/>
</g>
<g filter="url(#filter1_d_7_64)">
<path d="M17.4538 1.66407C17.4729 1.43535 17.5967 1.31622 17.8198 1.27597C18.0657 1.23164 18.4974 1.21246 18.6599 1.45283C18.8406 1.72016 18.5761 2.05916 18.3897 2.23884C18.2724 2.35192 18.139 2.4577 17.9942 2.53359C17.964 2.54946 17.8038 2.5784 17.8812 2.61711C18.113 2.73297 18.302 2.88769 18.4892 3.06784C18.6196 3.19336 18.9061 3.46183 18.8613 3.67454C18.7787 4.06696 17.7887 3.6814 17.5644 3.63156" stroke="#E4D33D" stroke-width="0.4" stroke-linecap="round"/>
</g>
<path d="M26 11C26.6001 9.85297 27.273 8.83366 28 8" stroke="black" stroke-width="0.4" stroke-linecap="round"/>
<path d="M26 11C26.6814 11 27.4703 11 28.1709 11C29.1125 11 30.0578 11 31 11" stroke="black" stroke-width="0.4" stroke-linecap="round"/>
<path d="M17 6.29236C17.6484 6.19905 18.2816 5.95353 18.8786 5.75077C19.5636 5.51815 20.253 5.30018 20.902 5.01014C21.6195 4.68956 22.2347 4.27328 22.8862 3.88299C24.1545 3.12326 25.535 2.5782 27.1019 2.27906C28.7548 1.9635 30.8198 1.80904 32.4031 2.40405C34.1789 3.0714 36.1884 5.60062 33.6816 6.55158C32.3841 7.04381 28.7093 6.57472 30.1656 4.96385C31.0864 3.94532 32.9442 3.55394 34.4234 3.28123C36.6317 2.87412 39.094 2.75734 41.347 2.98729C42.6034 3.11553 44.093 3.3336 44.9957 4.07973C45.7628 4.71381 46.1462 5.6431 45.9486 6.50066C45.805 7.12406 45.2006 7.58941 44.5132 7.89166C43.3999 8.38122 42.1239 8.66496 40.8856 8.89614C38.167 9.40369 35.3952 9.70778 32.6141 9.91683C30.2265 10.0963 27.9662 10.4383 25.6846 11" stroke="black" stroke-width="0.4" stroke-linecap="round"/>
<path d="M13.6365 1.51662C13.2886 1.36034 12.6736 1.21031 12.4272 1.60326C12.2846 1.83081 12.3613 2.12108 12.4328 2.35902C12.5471 2.7396 12.737 3.02546 13.1019 3.19774C13.4669 3.37003 14.4685 3.5679 14.5028 2.92309C14.53 2.41242 14.2124 1.8701 13.8355 1.5498" stroke="#010101" stroke-width="0.4" stroke-linecap="round"/>
<path d="M10.9986 2.16362C10.8769 2.03612 10.6867 1.86596 10.6761 1.67791C10.6559 1.31911 11.2991 1.25952 11.5314 1.26223C11.767 1.26499 12.0228 1.39145 12.1083 1.62353C12.2677 2.05586 11.9544 2.54737 11.701 2.86962C11.5789 3.02481 11.4439 3.17144 11.2973 3.30373C11.2081 3.38417 11.0751 3.45003 10.9986 3.54244C10.9641 3.5842 11.2236 3.59213 11.2245 3.59221C11.5669 3.62482 11.9095 3.6548 12.2512 3.69452C13.3412 3.8212 14.4368 3.98612 15.5093 4.21895C16.6208 4.46025 17.709 4.80142 18.796 5.13324" stroke="#010101" stroke-width="0.4" stroke-linecap="round"/>
<defs>
<filter id="filter0_d_7_64" x="14.8" y="0.800079" width="2.7791" height="3.64621" filterUnits="userSpaceOnUse" color-interpolation-filters="sRGB">
<feFlood flood-opacity="0" result="BackgroundImageFix"/>
<feColorMatrix in="SourceAlpha" type="matrix" values="0 0 0 0 0 0 0 0 0 0 0 0 0 0 0 0 0 0 127 0" result="hardAlpha"/>
<feOffset dx="0.5" dy="0.5"/>
<feComposite in2="hardAlpha" operator="out"/>
<feColorMatrix type="matrix" values="0 0 0 0 0 0 0 0 0 0 0 0 0 0 0 0 0 0 1 0"/>
<feBlend mode="normal" in2="BackgroundImageFix" result="effect1_dropShadow_7_64"/>
<feBlend mode="normal" in="SourceGraphic" in2="effect1_dropShadow_7_64" result="shape"/>
</filter>
<filter id="filter1_d_7_64" x="17.2538" y="1.04868" width="2.31219" height="3.50018" filterUnits="userSpaceOnUse" color-interpolation-filters="sRGB">
<feFlood flood-opacity="0" result="BackgroundImageFix"/>
<feColorMatrix in="SourceAlpha" type="matrix" values="0 0 0 0 0 0 0 0 0 0 0 0 0 0 0 0 0 0 127 0" result="hardAlpha"/>
<feOffset dx="0.5" dy="0.5"/>
<feComposite in2="hardAlpha" operator="out"/>
<feColorMatrix type="matrix" values="0 0 0 0 0 0 0 0 0 0 0 0 0 0 0 0 0 0 1 0"/>
<feBlend mode="normal" in2="BackgroundImageFix" result="effect1_dropShadow_7_64"/>
<feBlend mode="normal" in="SourceGraphic" in2="effect1_dropShadow_7_64" result="shape"/>
</filter>
</defs>
</svg>
