<svg width="10" height="10" viewBox="0 0 10 10" fill="none" xmlns="http://www.w3.org/2000/svg">
<path d="M5 9C6.06087 9 7.07828 8.57857 7.82843 7.82843C8.57857 7.07828 9 6.06087 9 5C9 3.93913 8.57857 2.92172 7.82843 2.17157C7.07828 1.42143 6.06087 1 5 1C3.93913 1 2.92172 1.42143 2.17157 2.17157C1.42143 2.92172 1 3.93913 1 5C1 6.06087 1.42143 7.07828 2.17157 7.82843C2.92172 8.57857 3.93913 9 5 9ZM5 10C2.2385 10 0 7.7615 0 5C0 2.2385 2.2385 0 5 0C7.7615 0 10 2.2385 10 5C10 7.7615 7.7615 10 5 10ZM3.445 5.585L2.196 5.1955C1.926 5.113 1.9245 4.927 2.2565 4.7935L7.123 2.9135C7.4055 2.7985 7.5655 2.944 7.474 3.3085L6.6455 7.2185C6.5875 7.497 6.42 7.5635 6.1875 7.435L4.912 6.491L4.3175 7.065C4.2565 7.124 4.207 7.1745 4.113 7.187C4.0195 7.2 3.9425 7.172 3.886 7.017L3.451 5.5815L3.445 5.585Z" fill="#101010"/>
</svg>
